<mxfile host="app.diagrams.net" modified="2023-06-01T05:58:43.171Z" agent="Mozilla/5.0 (Macintosh; Intel Mac OS X 10_15_7) AppleWebKit/537.36 (KHTML, like Gecko) Chrome/113.0.0.0 Safari/537.36" etag="OQ2QXZtIvz5F8vKFkT8y" version="21.3.6" type="github">
  <diagram id="R2lEEEUBdFMjLlhIrx00" name="Page-1">
    <mxGraphModel dx="1364" dy="358" grid="1" gridSize="10" guides="1" tooltips="1" connect="1" arrows="1" fold="1" page="1" pageScale="1" pageWidth="850" pageHeight="1100" math="0" shadow="0" extFonts="Permanent Marker^https://fonts.googleapis.com/css?family=Permanent+Marker">
      <root>
        <mxCell id="0" />
        <mxCell id="1" parent="0" />
        <mxCell id="C22hlfTWgnq2hd0DZ862-1" value="name" style="ellipse;whiteSpace=wrap;html=1;align=center;fontStyle=4;" vertex="1" parent="1">
          <mxGeometry x="70" y="30" width="80" height="40" as="geometry" />
        </mxCell>
        <mxCell id="C22hlfTWgnq2hd0DZ862-5" value="countries" style="whiteSpace=wrap;html=1;align=center;" vertex="1" parent="1">
          <mxGeometry x="70" y="120" width="160" height="90" as="geometry" />
        </mxCell>
        <mxCell id="C22hlfTWgnq2hd0DZ862-7" value="area" style="ellipse;whiteSpace=wrap;html=1;align=center;" vertex="1" parent="1">
          <mxGeometry x="150" y="30" width="80" height="40" as="geometry" />
        </mxCell>
        <mxCell id="C22hlfTWgnq2hd0DZ862-10" value="" style="endArrow=none;html=1;rounded=0;" edge="1" parent="1" target="C22hlfTWgnq2hd0DZ862-1">
          <mxGeometry relative="1" as="geometry">
            <mxPoint x="115.5" y="120" as="sourcePoint" />
            <mxPoint x="184.5" y="102" as="targetPoint" />
            <Array as="points" />
          </mxGeometry>
        </mxCell>
        <mxCell id="C22hlfTWgnq2hd0DZ862-11" value="" style="endArrow=none;html=1;rounded=0;entryX=0;entryY=1;entryDx=0;entryDy=0;" edge="1" parent="1">
          <mxGeometry relative="1" as="geometry">
            <mxPoint x="390.5" y="396" as="sourcePoint" />
            <mxPoint x="390" y="340" as="targetPoint" />
            <Array as="points" />
          </mxGeometry>
        </mxCell>
        <mxCell id="C22hlfTWgnq2hd0DZ862-13" value="area" style="ellipse;whiteSpace=wrap;html=1;align=center;" vertex="1" parent="1">
          <mxGeometry x="340" y="300" width="100" height="40" as="geometry" />
        </mxCell>
        <mxCell id="C22hlfTWgnq2hd0DZ862-14" value="" style="endArrow=none;html=1;rounded=0;entryX=0;entryY=1;entryDx=0;entryDy=0;exitX=0;exitY=0;exitDx=0;exitDy=0;" edge="1" parent="1" source="C22hlfTWgnq2hd0DZ862-5">
          <mxGeometry relative="1" as="geometry">
            <mxPoint x="40" y="126" as="sourcePoint" />
            <mxPoint x="40" y="70" as="targetPoint" />
            <Array as="points" />
          </mxGeometry>
        </mxCell>
        <mxCell id="C22hlfTWgnq2hd0DZ862-15" value="population" style="ellipse;whiteSpace=wrap;html=1;align=center;" vertex="1" parent="1">
          <mxGeometry x="-10" y="30" width="80" height="40" as="geometry" />
        </mxCell>
        <mxCell id="C22hlfTWgnq2hd0DZ862-16" value="" style="endArrow=none;html=1;rounded=0;entryX=0;entryY=1;entryDx=0;entryDy=0;exitX=0.927;exitY=-0.011;exitDx=0;exitDy=0;exitPerimeter=0;" edge="1" parent="1" source="C22hlfTWgnq2hd0DZ862-5">
          <mxGeometry relative="1" as="geometry">
            <mxPoint x="280.22" y="126" as="sourcePoint" />
            <mxPoint x="279.72" y="70" as="targetPoint" />
            <Array as="points" />
          </mxGeometry>
        </mxCell>
        <mxCell id="C22hlfTWgnq2hd0DZ862-17" value="GDP" style="ellipse;whiteSpace=wrap;html=1;align=center;" vertex="1" parent="1">
          <mxGeometry x="240" y="30" width="80" height="40" as="geometry" />
        </mxCell>
        <mxCell id="C22hlfTWgnq2hd0DZ862-18" value="" style="endArrow=none;html=1;rounded=0;" edge="1" parent="1">
          <mxGeometry relative="1" as="geometry">
            <mxPoint x="189.74" y="70" as="sourcePoint" />
            <mxPoint x="189.74" y="120" as="targetPoint" />
          </mxGeometry>
        </mxCell>
        <mxCell id="C22hlfTWgnq2hd0DZ862-21" value="name" style="ellipse;whiteSpace=wrap;html=1;align=center;fontStyle=4;" vertex="1" parent="1">
          <mxGeometry x="420" y="30" width="80" height="40" as="geometry" />
        </mxCell>
        <mxCell id="C22hlfTWgnq2hd0DZ862-22" value="countries" style="whiteSpace=wrap;html=1;align=center;" vertex="1" parent="1">
          <mxGeometry x="420" y="120" width="160" height="90" as="geometry" />
        </mxCell>
        <mxCell id="C22hlfTWgnq2hd0DZ862-23" value="area" style="ellipse;whiteSpace=wrap;html=1;align=center;" vertex="1" parent="1">
          <mxGeometry x="500" y="30" width="80" height="40" as="geometry" />
        </mxCell>
        <mxCell id="C22hlfTWgnq2hd0DZ862-24" value="" style="endArrow=none;html=1;rounded=0;" edge="1" parent="1" target="C22hlfTWgnq2hd0DZ862-21">
          <mxGeometry relative="1" as="geometry">
            <mxPoint x="465.5" y="120" as="sourcePoint" />
            <mxPoint x="534.5" y="102" as="targetPoint" />
            <Array as="points" />
          </mxGeometry>
        </mxCell>
        <mxCell id="C22hlfTWgnq2hd0DZ862-25" value="" style="endArrow=none;html=1;rounded=0;entryX=0;entryY=1;entryDx=0;entryDy=0;exitX=0;exitY=0;exitDx=0;exitDy=0;" edge="1" parent="1" source="C22hlfTWgnq2hd0DZ862-22">
          <mxGeometry relative="1" as="geometry">
            <mxPoint x="390" y="126" as="sourcePoint" />
            <mxPoint x="390" y="70" as="targetPoint" />
            <Array as="points" />
          </mxGeometry>
        </mxCell>
        <mxCell id="C22hlfTWgnq2hd0DZ862-26" value="population" style="ellipse;whiteSpace=wrap;html=1;align=center;" vertex="1" parent="1">
          <mxGeometry x="340" y="30" width="80" height="40" as="geometry" />
        </mxCell>
        <mxCell id="C22hlfTWgnq2hd0DZ862-27" value="" style="endArrow=none;html=1;rounded=0;entryX=0;entryY=1;entryDx=0;entryDy=0;exitX=0.927;exitY=-0.011;exitDx=0;exitDy=0;exitPerimeter=0;" edge="1" parent="1" source="C22hlfTWgnq2hd0DZ862-22">
          <mxGeometry relative="1" as="geometry">
            <mxPoint x="630.22" y="126" as="sourcePoint" />
            <mxPoint x="629.72" y="70" as="targetPoint" />
            <Array as="points" />
          </mxGeometry>
        </mxCell>
        <mxCell id="C22hlfTWgnq2hd0DZ862-28" value="GDP" style="ellipse;whiteSpace=wrap;html=1;align=center;" vertex="1" parent="1">
          <mxGeometry x="590" y="30" width="80" height="40" as="geometry" />
        </mxCell>
        <mxCell id="C22hlfTWgnq2hd0DZ862-29" value="" style="endArrow=none;html=1;rounded=0;" edge="1" parent="1">
          <mxGeometry relative="1" as="geometry">
            <mxPoint x="539.74" y="70" as="sourcePoint" />
            <mxPoint x="539.74" y="120" as="targetPoint" />
          </mxGeometry>
        </mxCell>
      </root>
    </mxGraphModel>
  </diagram>
</mxfile>
